<?xml version="1.0" encoding="UTF-8"?>
<!DOCTYPE svg PUBLIC "-//W3C//DTD SVG 1.1//EN" "http://www.w3.org/Graphics/SVG/1.1/DTD/svg11.dtd">
<!-- Creator: CorelDRAW (Versão OEM) -->
<svg xmlns="http://www.w3.org/2000/svg" xml:space="preserve" width="297mm" height="82mm" version="1.1" style="shape-rendering:geometricPrecision; text-rendering:geometricPrecision; image-rendering:optimizeQuality; fill-rule:evenodd; clip-rule:evenodd"
viewBox="0 0 29700 8200"
 xmlns:xlink="http://www.w3.org/1999/xlink"
 xmlns:xodm="http://www.corel.com/coreldraw/odm/2003">
 <defs>
  <style type="text/css">
   <![CDATA[
    .fil1 {fill:#C1B6A9}
    .fil0 {fill:#DDD4CD}
   ]]>
  </style>
 </defs>
 <g id="Camada_x0020_1">
  <metadata id="CorelCorpID_0Corel-Layer"/>
  <g id="_2735444160800">
   <path class="fil0" d="M13800.74 7007.61l133.29 4.12 38.34 -92.49 115.73 4.52c55.43,-140.46 56.91,-34.6 127.83,-177.57l133.11 -1.16 39.07 -86.47 135.65 -1.05 39.02 -86.16 308.44 -67.1 37.96 -90.26 138.58 2.58 40.09 -78.16 199.36 -12.69 39.98 -82.07 135.61 -1.07 39.06 -86.3 135.64 -1.19 39.06 -82.68 135.69 -4.66 38.98 -82.68 133.74 -4.38 37.29 -92.09 120.35 7.22c31.98,-97.23 118.52,-140.22 187.81,-220.6 52.46,-60.86 -6.61,-28.6 89.14,-62.13l-6.4 -109.5c45.37,-32.47 83.96,-19.45 89.24,-62.43 -47.74,-195.91 -1021.23,-559.34 -1227.74,-725.69 -224.5,-180.84 -389.39,-288.33 -683.9,-211.96 -279.07,72.36 -437.89,223.79 -686.26,299.68 -313.55,95.8 -370.09,248.7 -654.68,328.89 -320.76,90.38 -363.6,240.59 -624.67,356.48 -82.16,36.48 -220.93,127.75 -294.66,182.82 -119.6,89.37 -211.96,102.95 -322.18,180.3 -110.76,77.75 -141.77,156.65 -288.94,196.21 -149.69,40.24 -217.98,51.4 -342.9,154.79 -168.29,139.29 -158.57,74.73 -334.36,148.6 -107.4,45.12 -204.98,158.92 -303.07,199.49 -123.43,51.08 -210.97,64.87 -337.31,140.67 -137.07,82.24 -199.5,105.43 -349.81,155.54 -246.4,82.14 -426.99,230.77 -665.25,316.18 -62.61,22.45 -127.52,35.08 -185.79,55.23 -56.34,19.47 -98,56.61 -157.81,82.86 -250.22,109.81 -523.21,143.78 -794.54,190.66 -129.13,22.31 -264.37,75.74 -393.35,107.6 -259.28,64.01 -585.31,59.61 -859.21,123.71 -475.31,111.24 -379.18,66.28 -921.64,65.24 -167.28,-0.32 -334.63,-0.23 -501.91,0.26 -115.69,0.37 -263.16,18.59 -378.01,-0.4 -100.06,-16.55 -54.54,24.55 -65.12,-77.02 69.57,-43.25 241.09,-28.46 329.34,-52.8 396.76,-109.44 345.03,36.38 978.32,-200.32 331.15,-123.79 988.61,-248.05 1198.69,-350.47 172.2,-83.94 637.26,-232.93 859.73,-299.19 135.21,-40.28 181.57,-103.04 268.72,-124.68 336.99,-83.68 245.87,-45.5 572.67,-190.09 268.43,-118.78 188.25,-48.47 552.23,-233.41 343.11,-174.33 681.72,-354.5 1030.14,-520.96 97.97,-46.81 120.95,-102.08 213.8,-156.04 86.5,-50.29 165.95,-87.94 251.69,-141.59 578.44,-362.07 373.73,-520.76 590.71,-581.11 143.88,-40.04 214.84,57.94 300.62,60.04 102.43,2.5 428.37,-168.83 538.98,-212.37 40.51,-15.95 426.68,-283.2 463.13,-319 128.14,-125.88 254.97,-283.04 407.21,-373.69 0,-204.83 3.72,-194.33 -161.52,-323.14 -39.85,-31.06 -92.3,-83.65 -129.87,-107.41 -64.83,-41.01 -99.76,-34.02 -173.5,-89.79 -86.87,-65.71 -202.01,-176.11 -277.15,-226.28 -130.27,-86.95 -190.86,-56.79 -331.58,-193.1 -136.24,-131.96 -122.77,-127.78 -297.33,-200.88 -116.11,-48.62 -209.08,-148.41 -324.32,-199.97 -124.24,-55.58 -230.72,-85.34 -353.01,-150.5 -423.95,-225.91 -457.47,-158.69 -719.28,-304.75 -176.64,-98.55 -502.81,-277.28 -682.25,-322.34 -137.28,-34.44 -285.6,-47.22 -414,-112.09 -112.4,-56.78 -223.87,-124.49 -349.69,-149.36 -209.84,-41.5 -202.8,-36.64 -393.73,-134.26 -113.92,-58.26 -250.4,-51.01 -388.68,-113.07 -274.96,-123.36 -393.56,-47.69 -836.64,-187.71 -126.58,-40 -262.49,-56.63 -402.97,-99.77 -169.43,-52.05 -258.86,-62.14 -436.11,-62.17 -203.95,-0.01 -262.64,-69.76 -436.91,-87.96 -439.9,-45.96 -434.38,62.01 -974.19,-68.08 -141.61,-34.14 -241.56,45.48 -380.9,63.96 -315.27,41.79 -682.94,-45.01 -997.91,29.65 -124.41,29.5 -233.49,98.55 -391.08,133.21 -96.84,21.32 -313.64,62.25 -393.45,105.57 -433.01,234.99 -484.98,98 -1040.77,508.52 -107.54,79.43 -195.57,111.52 -301.91,197.95 -161.34,131.1 -183.66,140.54 -395.84,140.43 310.55,-492.47 810.94,-696.93 1304.48,-960.22l816.53 -321.36c475.55,-149.2 873.33,-252.66 1362.48,-341.75 173.47,-31.61 338.94,-23.42 506.21,-61.72 1001.19,-229.15 909.29,-81.99 1522.59,-57.83 182.01,7.18 315.66,49.47 490.9,80.32 307.92,54.19 628.04,97.43 920.9,215.38 134.99,54.37 280.26,127.03 426.2,137.42 161.74,11.49 337.02,9.98 475.34,102.39 188.01,125.62 953.41,439.54 1212.37,482.57 484.31,80.49 393.8,145.25 844.68,295.67 161,53.72 225.06,131.88 362.25,205.73 122.04,65.7 275.81,102.21 396.46,173.69 127.81,75.73 243.38,125.02 376.09,189.53 122.34,59.49 234.51,147.77 356.62,210.98 358.45,185.57 752.56,375.44 1055.65,649.74 77.68,70.28 235.19,192.33 324.26,244.49 306.2,179.31 113.88,266.94 431.68,266.94 735.04,-819.17 517.4,-527.36 1303.86,-1013.74l1140.37 -584.97c134.48,-72.89 291.44,-101.35 427.49,-163.52l788.09 -368.38c144.88,-77.1 275.13,-92.43 421.32,-148.12 141.58,-53.94 262.23,-129.91 404.87,-184.47 140.36,-53.69 276.79,-90.66 420.89,-147.14 655.14,-256.77 780.91,-217.44 1360.47,-405.55 161.39,-52.39 344.95,-73.56 513.91,-63.38 281.36,16.97 271.31,-22.66 513.56,-69.63 172.34,-33.43 351.55,0.31 526.78,-38.85 264.26,-59.04 225.38,-104.77 527.74,-47.6 282.06,53.36 622.31,70.07 906.98,67.43l1000.82 176.91c242.04,61.32 674.57,169.06 890.02,268.85 163.69,75.81 213.91,109.71 395.62,174.27 205.06,72.84 209.08,117.88 371.04,218.58 321.61,199.98 277.33,81.17 714.32,444.57 273.02,227.04 348.76,376.16 557.02,634.82 -346.21,-49.8 -400.12,-216.93 -681.83,-378.35 -208.2,-119.3 -421.99,-284.84 -631.64,-413.79 -324.06,-199.34 -1162.5,-556.03 -1530.9,-580.84 -214.32,-14.43 -262.27,37.5 -487.8,-40.51 -182.71,-63.21 -284.73,-53.02 -473.54,-45.6 -183.21,7.19 -351.67,-6.87 -531.52,-5.91 -183.38,0.99 -263.88,53.2 -428.34,87.89 -177.57,37.49 -341.1,-28.08 -515.99,11.31 -205.87,46.4 -206.13,77.15 -446.87,80.93 -393.28,6.18 -1306.22,282.27 -1719.16,394.78 -110.79,30.17 -316.79,60.15 -414.63,107.46 -236.59,114.44 -520.11,195.77 -734.97,312.43 -113.19,61.45 -218.21,140.47 -344.74,181.97 -284.32,93.24 -482.49,237.24 -760.73,310.18 -351.36,92.11 -723.62,367.53 -1026.07,542.43 -122.66,70.93 -209.95,152.63 -328.51,217.84 -117.87,64.85 -240.65,99.08 -349.91,173.2 -135.95,92.22 -169.34,129.88 -328.03,198.02 -174.76,75.02 -554.96,252.15 -664.33,392.86l0 214.73c174.18,82.54 15.02,1.33 100.71,86.99 36.15,36.11 52.53,30.99 87.28,101.45l219.54 2.42 34.16 87.01 206.05 4.67c30.67,45.84 19.69,50.54 38.73,67.87l164.82 125.72c3.11,5.11 10.46,33.36 13.68,39.89l219.54 2.42 34.1 86.82 140.59 1.19c81.83,133.78 -20.99,30.96 113.38,112.77l2.94 132.19 253.51 275.34 390.58 0 30.9 -87.47 143.62 0.49c38.81,-85.02 68.97,-89.6 113.47,-138.43 84.76,-93.03 -4.59,46.21 102.24,-117.16 81.33,-4.32 113.51,17.65 150.77,-44.04l89.46 -130.67 222.15 -8.58 29.94 -85.73 232.21 -0.44 46.87 -73.41c93.21,-73.8 -10.61,55.93 80.48,-72.21l374.91 -8.45c44.96,-75.02 -11.79,-78.39 114.94,-80.99l0 164.98 -137.72 4.16 -37.72 88.12 -224.32 0.28c-26.11,43.9 -5.04,26.73 -40.13,84.62l-134.6 -3.23c-25.99,51.97 -4.37,31.25 -40.1,90.66l-133.7 2.11 -40.13 90.3 -134.59 -3.65c-33.55,78.21 -65.44,68.61 -98.22,110.71l-20.26 46.89c-1.84,4.13 -4.27,12.4 -7.48,18.08l-114.28 -1.36c-0.92,2.78 -13.81,46.94 -19.97,54.65l-65.52 47c-35.76,35.7 -28.07,50.74 -100.62,87.09l0 227.74c148.39,80.62 172.27,40.18 296.31,183.94 36.96,42.83 105.27,57.15 158.78,79.5 131.4,54.92 50.54,75.12 136.4,124.38 206.02,118.14 461.16,199.84 667.85,338.66 110.35,74.12 86.21,18.67 192.11,45.51 138.22,35.02 369.86,235 504.32,255.13 249.9,37.44 483.15,184.2 708.93,301.62 100.51,52.29 245.32,109 334.87,169.07 112.33,75.36 272.42,-32.35 574.94,166.69 131.07,86.25 71.82,32.01 220.17,33.78 113.2,1.35 89.77,41.8 163.84,82.26 89.56,48.92 145.38,-15.8 248.31,15.39 62.31,18.87 75.67,79.81 146.35,86.8 110.5,10.93 133.73,-52.92 236.15,34.75 102.21,87.49 59.02,35.59 183.02,52.49 112.77,15.35 82.53,78.09 170.03,88.18 94.66,10.89 137.44,-44.1 233.94,13.62 134.22,80.27 67.56,94.49 425.21,72.81 125.2,-7.61 144.02,-42.52 202.82,77.8 -247.96,0.05 -1040.73,31.29 -1250.4,1.19 -165.18,-23.71 -174.1,-62.64 -372.7,-60.32 -223.94,2.61 -179.57,-41.77 -342.72,-76.58 -123.13,-26.26 -286.75,4.06 -383.01,-58.92 -126.95,-83.06 -95.18,-112.98 -276.9,-131.39 -168.87,-17.08 -256.58,34.74 -432.36,-6.45 -374.9,-87.8 -876,-297.47 -1184,-523.62 -109.93,-80.74 -178.73,-75.23 -294.34,-118.04 -98.38,-36.45 -380.75,-209.35 -582.08,-268.72 -205.4,-60.55 -131.12,-50.1 -290.29,-149.45 -137.61,-85.92 -526.19,-105.09 -671.51,-179.51 -86,-44.04 -107.18,-107.14 -246.33,-169.96 -401.23,-181.16 -369.46,-305.07 -814.71,15.18l-561.79 292.15c-115.21,60.86 -196.86,69.48 -307.34,111.61 -110.04,41.97 -199.24,113.34 -288.27,145.94 -211.48,77.43 -428.52,110.07 -636.98,215.9 -212.99,108.12 -407.72,169.77 -644.18,207.35 -161.51,25.66 -145.83,80.68 -280.03,134.87 -127.88,51.63 -181.09,42.09 -328.77,116.49 3.93,-164.18 30.53,-12.05 110.86,-186.66zm15050.92 -1588.29c-143.22,519.88 -347.31,807.49 -797.14,1102.77 -659.29,432.8 -1305.77,612.18 -2051.97,787 -315.25,73.87 -587.43,57.58 -906.13,54.76 -555.81,-4.89 -1334.58,59.65 -1852.51,-71.11 -257.01,-64.89 -516.97,-107.73 -767.46,-171.59 -960.46,-244.89 -2640.22,-828.45 -3450.2,-1310.92 -336.25,-200.29 -1204.73,-428.88 -312.44,-801.9 225.56,-94.28 405.29,-197.85 641.78,-284.28 706.15,-258.09 1258.14,-587.59 1995.42,-865.38 403.35,-151.97 1007.37,-389.94 1411.83,-488.15 267.5,-64.92 511.15,-92.17 774.36,-186.47 252.7,-90.53 479.12,-168.35 746.56,-213.89 722.32,-123 613.81,-284.28 1665.98,-241.01 642.39,26.42 938.65,131.01 1517.64,383.56 521.67,227.57 806.06,228.99 1155.69,749.06 328.44,488.53 384.47,991.72 228.59,1557.55zm-17295.88 -458.61l0 174.72c-200.78,135.91 -363.16,264.26 -583.41,377.91 -221.81,114.44 -417.94,189.74 -634.22,326.38 -372.96,235.58 -882.34,485.64 -1300.66,620.46 -751.65,242.25 -2205.83,751.85 -2999.94,865.89 -1030.65,148.04 -2441.26,245.21 -3413.71,-179.21 -912.83,-398.4 -1774.22,-924.06 -1858.02,-2018.3 -39.46,-515.35 105.14,-1067.24 473.22,-1443.57 345.36,-353.08 814.41,-492.48 1273.48,-648.25 650.31,-220.68 898.31,-335.98 1615.19,-304.86 840.39,36.48 826.65,-85.5 1803.83,144.97 1282.59,302.53 2485.87,582.05 3696.23,1109.14 222.47,96.88 433.76,204.66 661.28,298.5 543.88,224.32 793.28,308.25 1266.73,676.22zm-10965.98 -608.99l-9.23 -399.39 50.47 -24.96c59.82,-41.81 28.76,-36.78 62.15,-68.76l64.41 -33.73 -0.13 -129.67c130.62,-80.79 30.25,-15.68 111.31,-97.04l59.76 -50.52c3,-3.02 6.62,-8.38 9.57,-11.45l31.43 -33.72c3.41,-3.02 8.84,-6.71 12.38,-9.62 102.64,-83.96 104.87,-71.18 203.87,-68.3 2.18,-4.24 2.29,-16.93 3.1,-13.97 0.83,2.99 2.54,-11.57 3.9,-14.04 2.05,-3.69 9.2,-22.66 13.46,-26.95 28.38,-28.55 -45.1,-27.68 91.61,-30.97 -4.18,174.15 25.64,-2.43 -184.82,221.46l-73.19 46.01 2.41 137.23 -124.43 101.78c-3.33,3.2 -8.95,6.72 -12.31,9.83 -97.97,90.97 -25.78,57.15 -127.73,101.47l1.76 134.6c-87.81,78.24 22.1,-8.23 -89.11,40.1l-3.04 221.04c-94.12,78.06 -9.04,-26.94 -81.11,53.25 -47.82,53.2 76.4,54.55 -106.71,59.09 3.1,-128.75 9.46,-75.64 90.22,-112.77zm12844.07 -504.75l0 174.69c-783.02,700.65 -924.06,758.94 -1666.54,383.74 -294.64,-148.89 -647.23,-228.04 -959.43,-356.78 -312.91,-129.04 -631.66,-260.1 -945.83,-386.07 -656.34,-263.2 -1261.34,-511.02 -1949.68,-693.24 -1607.4,-425.48 -1565.45,-605.09 -3298.27,-652.58 -1511.85,-41.45 -1831.75,41.73 -3225.53,753.52 -278.37,142.17 -572.15,296.02 -748.7,561.54 -594.92,894.75 -521.57,2230.97 308.53,2942.12 961.1,823.38 1339.55,1125.59 2598.17,1354.98 358.46,65.33 800.37,153.47 1157.21,181.55 385.83,30.39 804.27,-59.28 1199.41,-73.83 521.27,-19.2 683.46,26.86 1215.55,-109.77 776.84,-199.44 1333.06,-222.52 2126.89,-515.52 153.1,-56.52 297.46,-141.16 450.31,-204.83 460.8,-191.98 895.83,-427.48 1349.02,-638.27 703.93,-327.45 1059.03,-534.73 1725.93,-916.49 292.54,-167.47 1493.28,-892.92 1699.45,-956.88 398.31,-123.56 589.34,53.28 897.43,253.5 292.5,190.07 577.06,296.44 883.21,449.13 0,309.34 12.7,217.14 -249.47,383.84l-426.18 207.13c-111.73,37.83 -55.33,43.47 -140.6,77.77 -113.78,45.79 -52.71,19.63 -145.05,73.34 -79.1,45.99 -59.31,-1.94 -149.67,68.71 -106.82,83.55 -32.7,25.29 -154.69,41.86 -119.49,16.23 -27.84,34.12 -139.91,78.47l-295.74 141.02c-86.34,61.23 -226.9,81.02 -311.62,125.15 -85.57,44.56 -182.58,125.04 -278.86,157.9l-1137.28 587.95c-67.92,39.4 -61.66,5.55 -138.41,58.13 -102.61,70.28 -55.36,25.84 -149.98,68.38 -71.3,32.06 -58.95,63.08 -108.5,109.91 -110.94,104.84 -253.54,45.5 -426.5,228.64 -55.27,58.53 -77.22,43.04 -141.35,77.04 -72.94,38.66 -52.98,53.9 -112.78,105.59 28.86,33.36 482.26,-8.76 554.96,-25.2l1517.96 -587.97c647.67,-287.44 1323.41,-569.11 1989.7,-809.25 992.78,-357.84 913.29,-868.45 1915.82,-301.19 315.6,178.57 659.96,256.45 993.78,401.49 308.68,134.09 673.48,276.39 965.24,432.41 948.01,506.96 1003.8,513.75 2079.02,694.44 1527.42,256.68 916.09,233.41 2553.75,248.53 491.44,4.52 815.13,-29.52 1297.02,-96.97 387.19,-54.19 832.91,-95.95 1207.96,-189.68 570.08,-142.47 1424.84,-530.65 1806,-989.3 217.7,-261.94 442.52,-469.9 589.57,-786.3 159.99,-344.22 243.07,-801.72 232.73,-1179.35 -25.46,-928.6 -371.08,-1212.37 -1080.6,-1713.65 -1674.5,-1183.03 -3883.68,-685.06 -5702.72,-141.56 -368.97,110.23 -674.98,236.57 -1032.57,365.07 -674.61,242.42 -1344.84,520.81 -2012.65,782.65 -351.89,137.97 -695.26,222.02 -1041.61,352.16 -354.71,133.27 -603.19,449.18 -876.01,522.92 -327.49,88.53 -545.38,-288.77 -775.21,-468.5 -239.05,-186.95 -706.85,-298.01 -1003.12,-390.03l0 -262.06c283.95,-110.3 462.9,-269.07 725.73,-366.2 520.09,-192.18 904.41,-608.81 1429.63,-797.85l1537.72 -689.78c123.25,-81.31 271.21,-101.61 412.98,-132.98 261.61,-57.89 526.14,-216.67 815.31,-298.45 156.9,-44.37 288.86,-60.5 443.99,-123.79 426.88,-174.15 602.64,-92.77 931.96,-181.8 176.27,-47.66 310.54,-39.39 470.48,-75.47 373,-84.13 59.63,-42.32 481.42,-64.55 149.8,-7.88 591.9,-181 1000.31,-60.09 423.75,125.46 654.79,9.36 1042.37,72.36 515.71,83.82 1168.98,302.03 1617.83,609.67 224.91,154.14 477.17,266.98 686.48,427.24 102.83,78.73 200,155.95 305.74,233.36 124.92,91.43 200.07,209.71 327.62,70.47 232.75,-254.09 -93.46,-482.02 -285.49,-651.71 -462.21,-408.49 -561.35,-397.29 -984.9,-652.92 -122.7,-74.07 -204.5,-157.34 -344.37,-223.42 -1510.76,-713.78 -1352.78,-464.53 -2598.69,-742.58 -281.45,-62.81 -777.42,-6.76 -1095.4,-22.35 -398.24,-19.5 -618.99,106.66 -980.07,133.69 -361.06,27.03 -616.15,80.12 -965.56,148.21 -299.28,58.31 -555.23,176.27 -849.19,241.85 -124.35,27.75 -1046.74,373.33 -1202.96,457.59 -169.34,91.37 -233.78,100.72 -408.32,159.49 -136.16,45.85 -243.14,117.6 -372.48,173.47 -139.02,60.06 -267.33,82.2 -409.21,158.58 -461.02,248.21 -1003.66,547.52 -1486,741.31 -117.01,47.02 -225.05,141.48 -344.52,201.81 -453.62,229.08 -610.48,314.52 -928.81,752.56 -300.67,0 -314.04,-161.46 -704.2,-448.3 -768.22,-564.83 -1428.64,-796.92 -2248.39,-1246.78 -558.59,-306.55 -1058.47,-455.5 -1650.94,-666.59 -283.53,-101.01 -548.88,-234.39 -841.71,-315.61 -946.26,-262.41 -1940.67,-535.38 -2921.98,-570.56 -447.66,-16.07 -1560.24,192.59 -2030.59,296.81 -897.66,198.91 -2460.8,889.32 -3032.5,1622.88 -160.11,205.43 -473.71,399.11 -550.99,643.53 -112.64,356.25 335.17,171.38 495.23,4.65 260.27,-271.12 294.18,-334.03 625.75,-540.71 939.43,-585.61 1334.43,-811.85 2511.93,-982.05 493.02,-71.26 1751.06,-45.31 2247.57,40.25 672.16,115.8 1230.63,244.33 1886.4,427.38 605.18,168.93 1153.05,384 1741.63,595.71 1082.92,389.52 2094.58,945.13 3009.63,1641.67z"/>
   <path class="fil1" d="M13800.74 7007.61c-80.33,174.61 -106.93,22.48 -110.86,186.66 147.68,-74.4 200.89,-64.86 328.77,-116.49 134.2,-54.19 118.52,-109.21 280.03,-134.87 236.46,-37.58 431.19,-99.23 644.18,-207.35 208.46,-105.83 425.5,-138.47 636.98,-215.9 89.03,-32.6 178.23,-103.97 288.27,-145.94 110.48,-42.13 192.13,-50.75 307.34,-111.61l561.79 -292.15c445.25,-320.25 413.48,-196.34 814.71,-15.18 139.15,62.82 160.33,125.92 246.33,169.96 145.32,74.42 533.9,93.59 671.51,179.51 159.17,99.35 84.89,88.9 290.29,149.45 201.33,59.37 483.7,232.27 582.08,268.72 115.61,42.81 184.41,37.3 294.34,118.04 308,226.15 809.1,435.82 1184,523.62 175.78,41.19 263.49,-10.63 432.36,6.45 181.72,18.41 149.95,48.33 276.9,131.39 96.26,62.98 259.88,32.66 383.01,58.92 163.15,34.81 118.78,79.19 342.72,76.58 198.6,-2.32 207.52,36.61 372.7,60.32 209.67,30.1 1002.44,-1.14 1250.4,-1.19 -58.8,-120.32 -77.62,-85.41 -202.82,-77.8 -357.65,21.68 -290.99,7.46 -425.21,-72.81 -96.5,-57.72 -139.28,-2.73 -233.94,-13.62 -87.5,-10.09 -57.26,-72.83 -170.03,-88.18 -124,-16.9 -80.81,35 -183.02,-52.49 -102.42,-87.67 -125.65,-23.82 -236.15,-34.75 -70.68,-6.99 -84.04,-67.93 -146.35,-86.8 -102.93,-31.19 -158.75,33.53 -248.31,-15.39 -74.07,-40.46 -50.64,-80.91 -163.84,-82.26 -148.35,-1.77 -89.1,52.47 -220.17,-33.78 -302.52,-199.04 -462.61,-91.33 -574.94,-166.69 -89.55,-60.07 -234.36,-116.78 -334.87,-169.07 -225.78,-117.42 -459.03,-264.18 -708.93,-301.62 -134.46,-20.13 -366.1,-220.11 -504.32,-255.13 -105.9,-26.84 -81.76,28.61 -192.11,-45.51 -206.69,-138.82 -461.83,-220.52 -667.85,-338.66 -85.86,-49.26 -5,-69.46 -136.4,-124.38 -53.51,-22.35 -121.82,-36.67 -158.78,-79.5 -124.04,-143.76 -147.92,-103.32 -296.31,-183.94l0 -227.74c72.55,-36.35 64.86,-51.39 100.62,-87.09l65.52 -47c6.16,-7.71 19.05,-51.87 19.97,-54.65l114.28 1.36c3.21,-5.68 5.64,-13.95 7.48,-18.08l20.26 -46.89c32.78,-42.1 64.67,-32.5 98.22,-110.71l134.59 3.65 40.13 -90.3 133.7 -2.11c35.73,-59.41 14.11,-38.69 40.1,-90.66l134.6 3.23c35.09,-57.89 14.02,-40.72 40.13,-84.62l224.32 -0.28 37.72 -88.12 137.72 -4.16 0 -164.98c-126.73,2.6 -69.98,5.97 -114.94,80.99l-374.91 8.45c-91.09,128.14 12.73,-1.59 -80.48,72.21l-46.87 73.41 -232.21 0.44 -29.94 85.73 -222.15 8.58 -89.46 130.67c-37.26,61.69 -69.44,39.72 -150.77,44.04 -106.83,163.37 -17.48,24.13 -102.24,117.16 -44.5,48.83 -74.66,53.41 -113.47,138.43l-143.62 -0.49 -30.9 87.47 -390.58 0 -253.51 -275.34 -2.94 -132.19c-134.37,-81.81 -31.55,21.01 -113.38,-112.77l-140.59 -1.19 -34.1 -86.82 -219.54 -2.42c-3.22,-6.53 -10.57,-34.78 -13.68,-39.89l-164.82 -125.72c-19.04,-17.33 -8.06,-22.03 -38.73,-67.87l-206.05 -4.67 -34.16 -87.01 -219.54 -2.42c-34.75,-70.46 -51.13,-65.34 -87.28,-101.45 -85.69,-85.66 73.47,-4.45 -100.71,-86.99l0 -214.73c109.37,-140.71 489.57,-317.84 664.33,-392.86 158.69,-68.14 192.08,-105.8 328.03,-198.02 109.26,-74.12 232.04,-108.35 349.91,-173.2 118.56,-65.21 205.85,-146.91 328.51,-217.84 302.45,-174.9 674.71,-450.32 1026.07,-542.43 278.24,-72.94 476.41,-216.94 760.73,-310.18 126.53,-41.5 231.55,-120.52 344.74,-181.97 214.86,-116.66 498.38,-197.99 734.97,-312.43 97.84,-47.31 303.84,-77.29 414.63,-107.46 412.94,-112.51 1325.88,-388.6 1719.16,-394.78 240.74,-3.78 241,-34.53 446.87,-80.93 174.89,-39.39 338.42,26.18 515.99,-11.31 164.46,-34.69 244.96,-86.9 428.34,-87.89 179.85,-0.96 348.31,13.1 531.52,5.91 188.81,-7.42 290.83,-17.61 473.54,45.6 225.53,78.01 273.48,26.08 487.8,40.51 368.4,24.81 1206.84,381.5 1530.9,580.84 209.65,128.95 423.44,294.49 631.64,413.79 281.71,161.42 335.62,328.55 681.83,378.35 -208.26,-258.66 -284,-407.78 -557.02,-634.82 -436.99,-363.4 -392.71,-244.59 -714.32,-444.57 -161.96,-100.7 -165.98,-145.74 -371.04,-218.58 -181.71,-64.56 -231.93,-98.46 -395.62,-174.27 -215.45,-99.79 -647.98,-207.53 -890.02,-268.85l-1000.82 -176.91c-284.67,2.64 -624.92,-14.07 -906.98,-67.43 -302.36,-57.17 -263.48,-11.44 -527.74,47.6 -175.23,39.16 -354.44,5.42 -526.78,38.85 -242.25,46.97 -232.2,86.6 -513.56,69.63 -168.96,-10.18 -352.52,10.99 -513.91,63.38 -579.56,188.11 -705.33,148.78 -1360.47,405.55 -144.1,56.48 -280.53,93.45 -420.89,147.14 -142.64,54.56 -263.29,130.53 -404.87,184.47 -146.19,55.69 -276.44,71.02 -421.32,148.12l-788.09 368.38c-136.05,62.17 -293.01,90.63 -427.49,163.52l-1140.37 584.97c-786.46,486.38 -568.82,194.57 -1303.86,1013.74 -317.8,0 -125.48,-87.63 -431.68,-266.94 -89.07,-52.16 -246.58,-174.21 -324.26,-244.49 -303.09,-274.3 -697.2,-464.17 -1055.65,-649.74 -122.11,-63.21 -234.28,-151.49 -356.62,-210.98 -132.71,-64.51 -248.28,-113.8 -376.09,-189.53 -120.65,-71.48 -274.42,-107.99 -396.46,-173.69 -137.19,-73.85 -201.25,-152.01 -362.25,-205.73 -450.88,-150.42 -360.37,-215.18 -844.68,-295.67 -258.96,-43.03 -1024.36,-356.95 -1212.37,-482.57 -138.32,-92.41 -313.6,-90.9 -475.34,-102.39 -145.94,-10.39 -291.21,-83.05 -426.2,-137.42 -292.86,-117.95 -612.98,-161.19 -920.9,-215.38 -175.24,-30.85 -308.89,-73.14 -490.9,-80.32 -613.3,-24.16 -521.4,-171.32 -1522.59,57.83 -167.27,38.3 -332.74,30.11 -506.21,61.72 -489.15,89.09 -886.93,192.55 -1362.48,341.75l-816.53 321.36c-493.54,263.29 -993.93,467.75 -1304.48,960.22 212.18,0.11 234.5,-9.33 395.84,-140.43 106.34,-86.43 194.37,-118.52 301.91,-197.95 555.79,-410.52 607.76,-273.53 1040.77,-508.52 79.81,-43.32 296.61,-84.25 393.45,-105.57 157.59,-34.66 266.67,-103.71 391.08,-133.21 314.97,-74.66 682.64,12.14 997.91,-29.65 139.34,-18.48 239.29,-98.1 380.9,-63.96 539.81,130.09 534.29,22.12 974.19,68.08 174.27,18.2 232.96,87.95 436.91,87.96 177.25,0.03 266.68,10.12 436.11,62.17 140.48,43.14 276.39,59.77 402.97,99.77 443.08,140.02 561.68,64.35 836.64,187.71 138.28,62.06 274.76,54.81 388.68,113.07 190.93,97.62 183.89,92.76 393.73,134.26 125.82,24.87 237.29,92.58 349.69,149.36 128.4,64.87 276.72,77.65 414,112.09 179.44,45.06 505.61,223.79 682.25,322.34 261.81,146.06 295.33,78.84 719.28,304.75 122.29,65.16 228.77,94.92 353.01,150.5 115.24,51.56 208.21,151.35 324.32,199.97 174.56,73.1 161.09,68.92 297.33,200.88 140.72,136.31 201.31,106.15 331.58,193.1 75.14,50.17 190.28,160.57 277.15,226.28 73.74,55.77 108.67,48.78 173.5,89.79 37.57,23.76 90.02,76.35 129.87,107.41 165.24,128.81 161.52,118.31 161.52,323.14 -152.24,90.65 -279.07,247.81 -407.21,373.69 -36.45,35.8 -422.62,303.05 -463.13,319 -110.61,43.54 -436.55,214.87 -538.98,212.37 -85.78,-2.1 -156.74,-100.08 -300.62,-60.04 -216.98,60.35 -12.27,219.04 -590.71,581.11 -85.74,53.65 -165.19,91.3 -251.69,141.59 -92.85,53.96 -115.83,109.23 -213.8,156.04 -348.42,166.46 -687.03,346.63 -1030.14,520.96 -363.98,184.94 -283.8,114.63 -552.23,233.41 -326.8,144.59 -235.68,106.41 -572.67,190.09 -87.15,21.64 -133.51,84.4 -268.72,124.68 -222.47,66.26 -687.53,215.25 -859.73,299.19 -210.08,102.42 -867.54,226.68 -1198.69,350.47 -633.29,236.7 -581.56,90.88 -978.32,200.32 -88.25,24.34 -259.77,9.55 -329.34,52.8 10.58,101.57 -34.94,60.47 65.12,77.02 114.85,18.99 262.32,0.77 378.01,0.4 167.28,-0.49 334.63,-0.58 501.91,-0.26 542.46,1.04 446.33,46 921.64,-65.24 273.9,-64.1 599.93,-59.7 859.21,-123.71 128.98,-31.86 264.22,-85.29 393.35,-107.6 271.33,-46.88 544.32,-80.85 794.54,-190.66 59.81,-26.25 101.47,-63.39 157.81,-82.86 58.27,-20.15 123.18,-32.78 185.79,-55.23 238.26,-85.41 418.85,-234.04 665.25,-316.18 150.31,-50.11 212.74,-73.3 349.81,-155.54 126.34,-75.8 213.88,-89.59 337.31,-140.67 98.09,-40.57 195.67,-154.37 303.07,-199.49 175.79,-73.87 166.07,-9.31 334.36,-148.6 124.92,-103.39 193.21,-114.55 342.9,-154.79 147.17,-39.56 178.18,-118.46 288.94,-196.21 110.22,-77.35 202.58,-90.93 322.18,-180.3 73.73,-55.07 212.5,-146.34 294.66,-182.82 261.07,-115.89 303.91,-266.1 624.67,-356.48 284.59,-80.19 341.13,-233.09 654.68,-328.89 248.37,-75.89 407.19,-227.32 686.26,-299.68 294.51,-76.37 459.4,31.12 683.9,211.96 206.51,166.35 1180,529.78 1227.74,725.69 -5.28,42.98 -43.87,29.96 -89.24,62.43l6.4 109.5c-95.75,33.53 -36.68,1.27 -89.14,62.13 -69.29,80.38 -155.83,123.37 -187.81,220.6l-120.35 -7.22 -37.29 92.09 -133.74 4.38 -38.98 82.68 -135.69 4.66 -39.06 82.68 -135.64 1.19 -39.06 86.3 -135.61 1.07 -39.98 82.07 -199.36 12.69 -40.09 78.16 -138.58 -2.58 -37.96 90.26 -308.44 67.1 -39.02 86.16 -135.65 1.05 -39.07 86.47 -133.11 1.16c-70.92,142.97 -72.4,37.11 -127.83,177.57l-115.73 -4.52 -38.34 92.49 -133.29 -4.12z"/>
   <path class="fil1" d="M589.8 4351.72c-80.76,37.13 -87.12,-15.98 -90.22,112.77 183.11,-4.54 58.89,-5.89 106.71,-59.09 72.07,-80.19 -13.01,24.81 81.11,-53.25l3.04 -221.04c111.21,-48.33 1.3,38.14 89.11,-40.1l-1.76 -134.6c101.95,-44.32 29.76,-10.5 127.73,-101.47 3.36,-3.11 8.98,-6.63 12.31,-9.83l124.43 -101.78 -2.41 -137.23 73.19 -46.01c210.46,-223.89 180.64,-47.31 184.82,-221.46 -136.71,3.29 -63.23,2.42 -91.61,30.97 -4.26,4.29 -11.41,23.26 -13.46,26.95 -1.36,2.47 -3.07,17.03 -3.9,14.04 -0.81,-2.96 -0.92,9.73 -3.1,13.97 -99,-2.88 -101.23,-15.66 -203.87,68.3 -3.54,2.91 -8.97,6.6 -12.38,9.62l-31.43 33.72c-2.95,3.07 -6.57,8.43 -9.57,11.45l-59.76 50.52c-81.06,81.36 19.31,16.25 -111.31,97.04l0.13 129.67 -64.41 33.73c-33.39,31.98 -2.33,26.95 -62.15,68.76l-50.47 24.96 9.23 399.39z"/>
  </g>
 </g>
</svg>
