<?xml version="1.0" encoding="UTF-8"?>
<svg xmlns="http://www.w3.org/2000/svg" xmlns:xlink="http://www.w3.org/1999/xlink" width="504.125" height="129.462" viewBox="0 0 504.125 129.462">
<defs>
<clipPath id="clip-0">
<path clip-rule="nonzero" d="M 229 119 L 232 119 L 232 128.925781 L 229 128.925781 Z M 229 119 "/>
</clipPath>
<clipPath id="clip-1">
<path clip-rule="nonzero" d="M 229 119 L 233 119 L 233 128.925781 L 229 128.925781 Z M 229 119 "/>
</clipPath>
<clipPath id="clip-2">
<path clip-rule="nonzero" d="M 0.609375 0 L 48 0 L 48 75 L 0.609375 75 Z M 0.609375 0 "/>
</clipPath>
<clipPath id="clip-3">
<path clip-rule="nonzero" d="M 434 0 L 502.644531 0 L 502.644531 75 L 434 75 Z M 434 0 "/>
</clipPath>
</defs>
<path fill-rule="nonzero" fill="rgb(8.610535%, 21.589661%, 29.753113%)" fill-opacity="1" d="M 47.679688 122.234375 L 46.527344 122.234375 L 38.742188 100.730469 L 39.980469 100.730469 L 47.105469 120.378906 L 54.183594 100.730469 L 55.421875 100.730469 Z M 47.679688 122.234375 "/>
<path fill-rule="nonzero" fill="rgb(8.610535%, 21.589661%, 29.753113%)" fill-opacity="1" d="M 46.941406 121.652344 L 46.945312 121.652344 L 42.878906 110.445312 Z M 47.265625 121.652344 L 47.269531 121.652344 L 50.753906 111.976562 Z M 48.089844 122.820312 L 46.121094 122.820312 L 37.910156 100.144531 L 40.390625 100.144531 L 47.101562 118.65625 L 53.773438 100.144531 L 56.253906 100.144531 Z M 48.089844 122.820312 "/>
<path fill-rule="nonzero" fill="rgb(8.610535%, 21.589661%, 29.753113%)" fill-opacity="1" d="M 68.609375 122.234375 L 67.457031 122.234375 L 67.457031 100.730469 L 68.609375 100.730469 Z M 68.609375 122.234375 "/>
<path fill-rule="nonzero" fill="rgb(8.610535%, 21.589661%, 29.753113%)" fill-opacity="1" d="M 69.195312 122.820312 L 66.875 122.820312 L 66.875 100.144531 L 69.195312 100.144531 Z M 69.195312 122.820312 "/>
<path fill-rule="nonzero" fill="rgb(8.610535%, 21.589661%, 29.753113%)" fill-opacity="1" d="M 89.496094 122.234375 L 88.34375 122.234375 L 80.554688 100.730469 L 81.792969 100.730469 L 88.917969 120.378906 L 96 100.730469 L 97.238281 100.730469 Z M 89.496094 122.234375 "/>
<path fill-rule="nonzero" fill="rgb(8.610535%, 21.589661%, 29.753113%)" fill-opacity="1" d="M 88.753906 121.652344 L 88.757812 121.652344 L 84.589844 110.148438 Z M 89.082031 121.652344 L 92.375 112.507812 Z M 89.90625 122.820312 L 87.933594 122.820312 L 79.722656 100.144531 L 82.203125 100.144531 L 88.917969 118.65625 L 95.589844 100.144531 L 98.070312 100.144531 Z M 89.90625 122.820312 "/>
<path fill-rule="nonzero" fill="rgb(8.610535%, 21.589661%, 29.753113%)" fill-opacity="1" d="M 117.769531 117.675781 L 112.328125 102.632812 L 106.839844 117.675781 Z M 120.644531 122.234375 L 119.40625 122.234375 L 118.210938 118.828125 L 106.398438 118.828125 L 105.203125 122.234375 L 103.964844 122.234375 L 111.75 100.730469 L 112.902344 100.730469 Z M 120.644531 122.234375 "/>
<path fill-rule="nonzero" fill="rgb(8.610535%, 21.589661%, 29.753113%)" fill-opacity="1" d="M 112.160156 101.316406 L 108.8125 110.566406 L 112.183594 101.316406 Z M 112.46875 101.316406 L 116.667969 112.914062 Z M 107.675781 117.09375 L 116.9375 117.09375 L 112.324219 104.347656 Z M 121.476562 122.820312 L 118.992188 122.820312 L 117.796875 119.414062 L 106.8125 119.414062 L 105.617188 122.820312 L 103.128906 122.820312 L 111.339844 100.144531 L 113.3125 100.144531 Z M 121.476562 122.820312 "/>
<path fill-rule="nonzero" fill="rgb(8.610535%, 21.589661%, 29.753113%)" fill-opacity="1" d="M 154.757812 121.085938 C 156.265625 121.085938 157.472656 120.6875 158.386719 119.890625 C 159.304688 119.09375 159.761719 117.945312 159.761719 116.4375 C 159.761719 113.460938 157.871094 111.96875 154.09375 111.96875 L 145.6875 111.96875 L 145.6875 121.085938 Z M 153.785156 110.820312 C 155.203125 110.820312 156.292969 110.4375 157.058594 109.667969 C 157.828125 108.902344 158.210938 107.765625 158.210938 106.261719 C 158.210938 104.847656 157.828125 103.761719 157.058594 103.007812 C 156.292969 102.257812 154.980469 101.882812 153.121094 101.882812 L 145.6875 101.882812 L 145.6875 110.820312 Z M 144.539062 122.234375 L 144.539062 100.730469 L 153.167969 100.730469 C 155.289062 100.730469 156.855469 101.21875 157.855469 102.191406 C 158.859375 103.164062 159.363281 104.492188 159.363281 106.171875 C 159.363281 107.324219 159.132812 108.339844 158.675781 109.226562 C 158.21875 110.113281 157.515625 110.761719 156.574219 111.171875 C 157.988281 111.410156 159.066406 112 159.804688 112.941406 C 160.539062 113.886719 160.910156 115.066406 160.910156 116.484375 C 160.910156 118.371094 160.335938 119.800781 159.183594 120.773438 C 158.035156 121.75 156.558594 122.234375 154.757812 122.234375 Z M 144.539062 122.234375 "/>
<path fill-rule="nonzero" fill="rgb(8.610535%, 21.589661%, 29.753113%)" fill-opacity="1" d="M 146.273438 110.234375 L 153.785156 110.234375 C 155.050781 110.234375 155.988281 109.914062 156.648438 109.253906 C 157.296875 108.605469 157.625 107.597656 157.625 106.261719 C 157.625 104.996094 157.308594 104.070312 156.652344 103.425781 C 156 102.789062 154.8125 102.464844 153.121094 102.464844 L 146.273438 102.464844 Z M 154.292969 111.386719 C 154.398438 111.386719 154.507812 111.390625 154.613281 111.394531 L 154.726562 111.34375 C 154.585938 111.363281 154.441406 111.378906 154.292969 111.386719 M 146.273438 120.5 L 154.757812 120.5 C 156.109375 120.5 157.203125 120.148438 158.003906 119.449219 C 158.792969 118.761719 159.175781 117.777344 159.175781 116.4375 C 159.175781 114.769531 158.648438 112.554688 154.097656 112.554688 L 146.273438 112.554688 Z M 160.222656 117.742188 C 160.011719 118.804688 159.527344 119.671875 158.773438 120.332031 C 158.460938 120.601562 158.121094 120.828125 157.753906 121.019531 C 158.132812 120.828125 158.484375 120.601562 158.808594 120.328125 C 159.5625 119.691406 160.03125 118.839844 160.222656 117.742188 M 154.757812 122.820312 L 143.953125 122.820312 L 143.953125 100.144531 L 153.167969 100.144531 C 155.4375 100.144531 157.152344 100.691406 158.265625 101.769531 C 159.378906 102.855469 159.945312 104.335938 159.945312 106.171875 C 159.945312 107.414062 159.691406 108.527344 159.195312 109.496094 C 158.898438 110.070312 158.507812 110.558594 158.027344 110.960938 C 158.945312 111.3125 159.695312 111.855469 160.265625 112.582031 C 161.082031 113.628906 161.496094 114.941406 161.496094 116.480469 C 161.496094 118.542969 160.84375 120.136719 159.5625 121.21875 C 158.308594 122.28125 156.695312 122.820312 154.757812 122.820312 "/>
<path fill-rule="nonzero" fill="rgb(8.610535%, 21.589661%, 29.753113%)" fill-opacity="1" d="M 186 122.234375 L 171.664062 122.234375 L 171.664062 100.730469 L 185.777344 100.730469 L 185.777344 101.878906 L 172.8125 101.878906 L 172.8125 110.820312 L 183.875 110.820312 L 183.875 111.96875 L 172.8125 111.96875 L 172.8125 121.085938 L 186 121.085938 Z M 186 122.234375 "/>
<path fill-rule="nonzero" fill="rgb(8.610535%, 21.589661%, 29.753113%)" fill-opacity="1" d="M 186.582031 122.820312 L 171.078125 122.820312 L 171.078125 100.144531 L 186.363281 100.144531 L 186.363281 102.464844 L 173.398438 102.464844 L 173.398438 110.234375 L 184.460938 110.234375 L 184.460938 112.554688 L 173.398438 112.554688 L 173.398438 120.5 L 186.582031 120.5 Z M 186.582031 122.820312 "/>
<path fill-rule="nonzero" fill="rgb(8.610535%, 21.589661%, 29.753113%)" fill-opacity="1" d="M 219.496094 122.234375 L 218.34375 122.234375 L 218.34375 102.765625 L 208.652344 122.234375 L 207.414062 122.234375 L 197.726562 102.765625 L 197.726562 122.234375 L 196.574219 122.234375 L 196.574219 100.730469 L 198.035156 100.730469 L 208.035156 120.90625 L 218.035156 100.730469 L 219.496094 100.730469 Z M 219.496094 122.234375 "/>
<path fill-rule="nonzero" fill="rgb(8.610535%, 21.589661%, 29.753113%)" fill-opacity="1" d="M 197.65625 101.316406 L 201.476562 108.988281 Z M 218.394531 101.316406 L 214.578125 109.019531 L 218.414062 101.316406 Z M 220.078125 122.820312 L 217.761719 122.820312 L 217.761719 105.25 L 209.015625 122.820312 L 207.050781 122.820312 L 198.308594 105.25 L 198.308594 122.820312 L 195.988281 122.820312 L 195.988281 100.144531 L 198.394531 100.144531 L 208.035156 119.589844 L 217.671875 100.144531 L 220.078125 100.144531 Z M 220.078125 122.820312 "/>
<g clip-path="url(#clip-0)">
<path fill-rule="nonzero" fill="rgb(8.610535%, 21.589661%, 29.753113%)" fill-opacity="1" d="M 230.734375 128.34375 L 229.757812 128.34375 L 230.511719 119.847656 L 231.75 119.847656 Z M 230.734375 128.34375 "/>
</g>
<g clip-path="url(#clip-1)">
<path fill-rule="nonzero" fill="rgb(8.610535%, 21.589661%, 29.753113%)" fill-opacity="1" d="M 231.046875 120.429688 L 230.917969 121.882812 L 231.089844 120.429688 Z M 231.253906 128.925781 L 229.121094 128.925781 L 229.976562 119.261719 L 232.410156 119.261719 Z M 231.253906 128.925781 "/>
</g>
<path fill-rule="nonzero" fill="rgb(8.610535%, 21.589661%, 29.753113%)" fill-opacity="1" d="M 264.582031 122.234375 L 263.429688 122.234375 L 255.644531 100.730469 L 256.882812 100.730469 L 264.007812 120.378906 L 271.085938 100.730469 L 272.324219 100.730469 Z M 264.582031 122.234375 "/>
<path fill-rule="nonzero" fill="rgb(8.610535%, 21.589661%, 29.753113%)" fill-opacity="1" d="M 263.84375 121.652344 L 263.847656 121.652344 L 259.683594 110.171875 Z M 264.167969 121.652344 L 264.171875 121.652344 L 267.644531 112.007812 Z M 264.992188 122.820312 L 263.023438 122.820312 L 254.8125 100.144531 L 257.292969 100.144531 L 264.003906 118.65625 L 270.675781 100.144531 L 273.15625 100.144531 Z M 264.992188 122.820312 "/>
<path fill-rule="nonzero" fill="rgb(8.610535%, 21.589661%, 29.753113%)" fill-opacity="1" d="M 285.511719 122.234375 L 284.359375 122.234375 L 284.359375 100.730469 L 285.511719 100.730469 Z M 285.511719 122.234375 "/>
<path fill-rule="nonzero" fill="rgb(8.610535%, 21.589661%, 29.753113%)" fill-opacity="1" d="M 286.097656 122.820312 L 283.777344 122.820312 L 283.777344 100.144531 L 286.097656 100.144531 Z M 286.097656 122.820312 "/>
<path fill-rule="nonzero" fill="rgb(8.610535%, 21.589661%, 29.753113%)" fill-opacity="1" d="M 306.398438 122.234375 L 305.246094 122.234375 L 297.457031 100.730469 L 298.699219 100.730469 L 305.820312 120.378906 L 312.902344 100.730469 L 314.140625 100.730469 Z M 306.398438 122.234375 "/>
<path fill-rule="nonzero" fill="rgb(8.610535%, 21.589661%, 29.753113%)" fill-opacity="1" d="M 305.65625 121.652344 L 305.660156 121.652344 L 301.5 110.171875 Z M 305.984375 121.652344 L 305.988281 121.652344 L 309.457031 112.007812 Z M 306.808594 122.820312 L 304.835938 122.820312 L 296.625 100.144531 L 299.109375 100.144531 L 305.820312 118.65625 L 312.492188 100.144531 L 314.972656 100.144531 Z M 306.808594 122.820312 "/>
<path fill-rule="nonzero" fill="rgb(8.610535%, 21.589661%, 29.753113%)" fill-opacity="1" d="M 334.671875 117.675781 L 329.230469 102.632812 L 323.742188 117.675781 Z M 337.546875 122.234375 L 336.308594 122.234375 L 335.113281 118.828125 L 323.300781 118.828125 L 322.105469 122.234375 L 320.867188 122.234375 L 328.652344 100.730469 L 329.804688 100.730469 Z M 337.546875 122.234375 "/>
<path fill-rule="nonzero" fill="rgb(8.610535%, 21.589661%, 29.753113%)" fill-opacity="1" d="M 329.0625 101.316406 L 325.734375 110.511719 L 329.085938 101.316406 Z M 329.375 101.316406 L 333.554688 112.871094 Z M 324.578125 117.09375 L 333.839844 117.09375 L 329.226562 104.34375 Z M 338.378906 122.820312 L 335.894531 122.820312 L 334.699219 119.414062 L 323.714844 119.414062 L 322.519531 122.820312 L 320.03125 122.820312 L 328.242188 100.144531 L 330.214844 100.144531 Z M 338.378906 122.820312 "/>
<path fill-rule="nonzero" fill="rgb(8.610535%, 21.589661%, 29.753113%)" fill-opacity="1" d="M 384.140625 122.234375 L 382.988281 122.234375 L 382.988281 102.765625 L 373.300781 122.234375 L 372.058594 122.234375 L 362.371094 102.765625 L 362.371094 122.234375 L 361.21875 122.234375 L 361.21875 100.730469 L 362.679688 100.730469 L 372.679688 120.90625 L 382.679688 100.730469 L 384.140625 100.730469 Z M 384.140625 122.234375 "/>
<path fill-rule="nonzero" fill="rgb(8.610535%, 21.589661%, 29.753113%)" fill-opacity="1" d="M 362.300781 101.316406 L 366.078125 108.90625 Z M 383.042969 101.316406 L 379.1875 109.097656 L 383.058594 101.316406 Z M 384.722656 122.820312 L 382.40625 122.820312 L 382.40625 105.25 L 373.660156 122.820312 L 371.699219 122.820312 L 362.953125 105.25 L 362.953125 122.820312 L 360.636719 122.820312 L 360.636719 100.144531 L 363.042969 100.144531 L 372.679688 119.589844 L 382.316406 100.144531 L 384.722656 100.144531 Z M 384.722656 122.820312 "/>
<path fill-rule="nonzero" fill="rgb(8.610535%, 21.589661%, 29.753113%)" fill-opacity="1" d="M 409.582031 117.675781 L 404.140625 102.632812 L 398.652344 117.675781 Z M 412.457031 122.234375 L 411.21875 122.234375 L 410.023438 118.828125 L 398.210938 118.828125 L 397.015625 122.234375 L 395.777344 122.234375 L 403.566406 100.730469 L 404.714844 100.730469 Z M 412.457031 122.234375 "/>
<path fill-rule="nonzero" fill="rgb(8.610535%, 21.589661%, 29.753113%)" fill-opacity="1" d="M 403.976562 101.316406 L 400.625 110.5625 L 404 101.316406 Z M 404.285156 101.316406 L 408.480469 112.914062 Z M 399.488281 117.09375 L 408.75 117.09375 L 404.136719 104.347656 Z M 413.289062 122.820312 L 410.804688 122.820312 L 409.609375 119.414062 L 398.625 119.414062 L 397.429688 122.820312 L 394.945312 122.820312 L 403.15625 100.144531 L 405.125 100.144531 Z M 413.289062 122.820312 "/>
<path fill-rule="nonzero" fill="rgb(8.610535%, 21.589661%, 29.753113%)" fill-opacity="1" d="M 425.511719 122.234375 L 424.363281 122.234375 L 424.363281 100.730469 L 425.511719 100.730469 Z M 425.511719 122.234375 "/>
<path fill-rule="nonzero" fill="rgb(8.610535%, 21.589661%, 29.753113%)" fill-opacity="1" d="M 426.097656 122.820312 L 423.777344 122.820312 L 423.777344 100.144531 L 426.097656 100.144531 Z M 426.097656 122.820312 "/>
<path fill-rule="nonzero" fill="rgb(8.610535%, 21.589661%, 29.753113%)" fill-opacity="1" d="M 436.617188 118.871094 C 438.003906 119.875 439.316406 120.5625 440.554688 120.929688 C 441.792969 121.296875 443.136719 121.484375 444.582031 121.484375 C 445.320312 121.484375 446.109375 121.417969 446.949219 121.285156 C 447.789062 121.152344 448.574219 120.914062 449.292969 120.578125 C 450.015625 120.238281 450.613281 119.757812 451.085938 119.136719 C 451.558594 118.519531 451.796875 117.722656 451.796875 116.746094 C 451.796875 115.480469 451.425781 114.523438 450.6875 113.871094 C 449.949219 113.222656 449.035156 112.722656 447.945312 112.367188 C 446.851562 112.015625 445.667969 111.734375 444.382812 111.527344 C 443.101562 111.320312 441.910156 111.027344 440.820312 110.644531 C 439.730469 110.257812 438.816406 109.707031 438.078125 108.980469 C 437.339844 108.261719 436.972656 107.207031 436.972656 105.820312 C 436.972656 104.640625 437.230469 103.695312 437.746094 102.988281 C 438.261719 102.277344 438.917969 101.734375 439.714844 101.347656 C 440.511719 100.96875 441.382812 100.710938 442.324219 100.574219 C 443.269531 100.441406 444.183594 100.375 445.070312 100.375 C 446.308594 100.375 447.5625 100.507812 448.832031 100.773438 C 450.097656 101.039062 451.277344 101.601562 452.371094 102.457031 L 451.574219 103.382812 C 450.628906 102.617188 449.589844 102.117188 448.453125 101.882812 C 447.320312 101.644531 446.1875 101.527344 445.070312 101.527344 C 444.300781 101.527344 443.511719 101.578125 442.703125 101.679688 C 441.890625 101.785156 441.144531 101.984375 440.46875 102.277344 C 439.789062 102.574219 439.226562 103.007812 438.785156 103.585938 C 438.34375 104.160156 438.121094 104.90625 438.121094 105.820312 C 438.121094 106.96875 438.492188 107.832031 439.226562 108.40625 C 439.964844 108.980469 440.878906 109.433594 441.972656 109.757812 C 443.0625 110.082031 444.25 110.351562 445.535156 110.574219 C 446.816406 110.796875 448.003906 111.128906 449.097656 111.570312 C 450.1875 112.015625 451.101562 112.625 451.839844 113.40625 C 452.574219 114.191406 452.945312 115.304688 452.945312 116.746094 C 452.945312 117.957031 452.671875 118.945312 452.125 119.710938 C 451.582031 120.480469 450.894531 121.078125 450.070312 121.503906 C 449.242188 121.933594 448.335938 122.226562 447.347656 122.390625 C 446.359375 122.550781 445.4375 122.632812 444.582031 122.632812 C 441.308594 122.632812 438.402344 121.675781 435.863281 119.757812 Z M 436.617188 118.871094 "/>
<path fill-rule="nonzero" fill="rgb(8.610535%, 21.589661%, 29.753113%)" fill-opacity="1" d="M 449.199219 101.46875 C 450.011719 101.707031 450.777344 102.082031 451.488281 102.585938 L 451.515625 102.554688 C 450.785156 102.058594 450.007812 101.695312 449.199219 101.46875 M 439.585938 102.082031 C 439.050781 102.402344 438.589844 102.824219 438.21875 103.332031 C 437.964844 103.679688 437.78125 104.105469 437.675781 104.605469 C 437.800781 104.082031 438.019531 103.621094 438.324219 103.226562 C 438.675781 102.769531 439.101562 102.386719 439.585938 102.082031 M 437.648438 106.890625 C 437.78125 107.589844 438.058594 108.144531 438.488281 108.5625 C 439.160156 109.226562 440.007812 109.738281 441.015625 110.089844 C 441.886719 110.398438 442.828125 110.648438 443.828125 110.835938 C 443.117188 110.679688 442.441406 110.507812 441.804688 110.316406 C 440.648438 109.972656 439.660156 109.488281 438.867188 108.867188 C 438.238281 108.375 437.832031 107.714844 437.648438 106.890625 M 452.144531 118.34375 C 452.007812 118.769531 451.808594 119.152344 451.550781 119.492188 C 451.023438 120.183594 450.347656 120.726562 449.542969 121.105469 C 449.109375 121.308594 448.652344 121.480469 448.179688 121.613281 C 448.753906 121.457031 449.296875 121.246094 449.800781 120.984375 C 450.539062 120.601562 451.160156 120.0625 451.648438 119.375 C 451.863281 119.074219 452.027344 118.730469 452.144531 118.34375 M 444.582031 123.21875 C 441.191406 123.21875 438.140625 122.210938 435.511719 120.222656 L 435.019531 119.851562 L 436.523438 118.082031 L 436.960938 118.398438 C 438.285156 119.355469 439.550781 120.019531 440.722656 120.371094 C 442.5 120.898438 444.476562 121.082031 446.859375 120.707031 C 447.640625 120.582031 448.375 120.363281 449.046875 120.046875 C 449.6875 119.746094 450.203125 119.332031 450.621094 118.78125 C 451.011719 118.269531 451.210938 117.585938 451.210938 116.746094 C 451.210938 115.644531 450.914062 114.847656 450.300781 114.3125 C 449.625 113.71875 448.773438 113.25 447.765625 112.921875 C 446.699219 112.578125 445.53125 112.304688 444.292969 112.105469 C 442.980469 111.894531 441.75 111.585938 440.628906 111.195312 C 439.457031 110.785156 438.460938 110.179688 437.667969 109.398438 C 436.820312 108.566406 436.386719 107.363281 436.386719 105.820312 C 436.386719 104.519531 436.683594 103.449219 437.273438 102.644531 C 437.84375 101.859375 438.582031 101.246094 439.460938 100.824219 C 440.308594 100.417969 441.246094 100.136719 442.242188 99.996094 C 444.597656 99.667969 446.722656 99.738281 448.949219 100.203125 C 450.300781 100.484375 451.574219 101.089844 452.730469 101.996094 L 453.210938 102.375 L 451.648438 104.195312 L 451.203125 103.839844 C 450.339844 103.136719 449.375 102.667969 448.335938 102.453125 C 446.496094 102.070312 444.714844 102.015625 442.773438 102.261719 C 442.023438 102.355469 441.324219 102.542969 440.699219 102.8125 C 440.109375 103.074219 439.632812 103.441406 439.25 103.941406 C 438.890625 104.40625 438.707031 105.039062 438.707031 105.820312 C 438.707031 106.789062 438.996094 107.484375 439.589844 107.945312 C 440.265625 108.476562 441.125 108.894531 442.136719 109.195312 C 443.191406 109.511719 444.371094 109.78125 445.632812 110 C 446.953125 110.226562 448.191406 110.574219 449.316406 111.027344 C 450.480469 111.503906 451.472656 112.167969 452.261719 113.007812 C 453.105469 113.898438 453.527344 115.15625 453.527344 116.746094 C 453.527344 118.074219 453.21875 119.1875 452.601562 120.050781 C 452.003906 120.890625 451.242188 121.554688 450.339844 122.023438 C 449.460938 122.480469 448.484375 122.796875 447.441406 122.964844 C 446.4375 123.132812 445.472656 123.21875 444.582031 123.21875 "/>
<path fill-rule="nonzero" fill="rgb(8.610535%, 21.589661%, 29.753113%)" fill-opacity="1" d="M 464.757812 122.234375 L 463.609375 122.234375 L 463.609375 119.847656 L 464.757812 119.847656 Z M 464.757812 122.234375 "/>
<path fill-rule="nonzero" fill="rgb(8.610535%, 21.589661%, 29.753113%)" fill-opacity="1" d="M 465.34375 122.820312 L 463.023438 122.820312 L 463.023438 119.261719 L 465.34375 119.261719 Z M 465.34375 122.820312 "/>
<g clip-path="url(#clip-2)">
<path fill-rule="nonzero" fill="rgb(8.610535%, 21.589661%, 29.753113%)" fill-opacity="1" d="M 42.046875 21.542969 C 42.046875 12.3125 37.464844 2.21875 22.507812 2.21875 L 6.546875 2.21875 L 6.546875 40.867188 L 22.507812 40.867188 C 37.464844 40.867188 42.046875 30.847656 42.046875 21.542969 M 0.605469 74.148438 L 0.605469 0 L 22.507812 0 C 33.816406 0 47.917969 3.722656 47.917969 21.542969 C 47.917969 39.363281 33.816406 43.085938 22.507812 43.085938 L 6.546875 43.085938 L 6.546875 74.148438 Z M 0.605469 74.148438 "/>
</g>
<path fill-rule="nonzero" fill="rgb(8.610535%, 21.589661%, 29.753113%)" fill-opacity="1" d="M 88.261719 74.148438 L 88.261719 0 L 94.199219 3.867188 L 94.199219 71.929688 L 136.144531 71.929688 L 136.144531 74.148438 Z M 88.261719 74.148438 "/>
<path fill-rule="nonzero" fill="rgb(8.610535%, 21.589661%, 29.753113%)" fill-opacity="1" d="M 173.121094 74.148438 L 173.121094 0 L 221.003906 0 L 221.003906 2.21875 L 179.0625 2.21875 L 179.0625 36 L 213.988281 36 L 213.988281 38.21875 L 179.0625 38.21875 L 179.0625 71.929688 L 221.003906 71.929688 L 221.003906 74.148438 Z M 173.121094 74.148438 "/>
<path fill-rule="nonzero" fill="rgb(8.610535%, 21.589661%, 29.753113%)" fill-opacity="1" d="M 307.726562 74.148438 L 262.707031 4.722656 L 262.707031 74.148438 L 260.488281 74.148438 L 260.488281 0 L 266.644531 0 L 312.59375 70.714844 L 312.59375 0 L 314.8125 0 L 314.8125 74.148438 Z M 307.726562 74.148438 "/>
<path fill-rule="nonzero" fill="rgb(8.610535%, 21.589661%, 29.753113%)" fill-opacity="1" d="M 381.140625 74.148438 L 381.140625 45.304688 L 349.648438 0 L 356.089844 0 L 386.222656 42.300781 L 415.566406 0 L 417.925781 0 L 387.007812 44.589844 L 387.007812 74.148438 Z M 381.140625 74.148438 "/>
<g clip-path="url(#clip-3)">
<path fill-rule="nonzero" fill="rgb(8.610535%, 21.589661%, 29.753113%)" fill-opacity="1" d="M 466.503906 4.152344 L 446.605469 51.101562 L 486.398438 51.101562 Z M 496.203125 74.148438 L 487.402344 53.320312 L 445.601562 53.320312 L 436.800781 74.148438 L 434.367188 74.148438 L 465.859375 0 L 471.152344 0 L 502.644531 74.148438 Z M 496.203125 74.148438 "/>
</g>
</svg>
